<?xml version="1.0" standalone="no"?>
<!DOCTYPE svg PUBLIC "-//W3C//DTD SVG 20010904//EN"
 "http://www.w3.org/TR/2001/REC-SVG-20010904/DTD/svg10.dtd">
<svg version="1.0" xmlns="http://www.w3.org/2000/svg"
 width="500.000000pt" height="500.000000pt" viewBox="0 0 500.000000 500.000000"
 preserveAspectRatio="xMidYMid meet">

<g transform="translate(0.000000,500.000000) scale(0.100000,-0.100000)"
fill="#000000" stroke="none">
<path d="M1311 3396 l-185 -185 3 -147 c1 -80 -1 -186 -5 -235 l-7 -89 -43 0
c-105 0 -207 -70 -244 -168 -67 -177 58 -362 245 -362 l45 0 1 -227 c1 -126 1
-231 1 -234 -1 -8 353 -360 373 -372 9 -4 210 -7 448 -5 478 3 461 1 527 70
81 87 56 245 -49 311 -35 22 -42 22 -461 27 l-425 5 0 240 0 240 272 5 271 5
39 31 c121 98 110 280 -22 352 -25 14 -74 18 -295 22 l-265 5 -3 243 -2 242
412 0 413 0 52 24 c146 68 145 283 -2 356 l-50 25 -430 3 -430 3 -184 -185z
m-132 -830 l37 -36 287 0 288 0 -3 -47 -3 -48 -291 -3 -291 -2 -11 -25 c-27
-60 -127 -83 -189 -45 -46 28 -66 72 -60 133 11 119 146 161 236 73z"/>
<path d="M2856 3399 l-186 -181 0 -298 0 -298 183 -181 182 -181 250 0 251 0
37 -38 37 -38 0 -141 0 -141 -41 -41 -41 -41 -162 0 -162 0 -42 43 -42 43 0
87 0 87 -225 0 -225 0 0 -169 0 -170 183 -180 182 -181 330 1 330 0 183 177
183 177 0 305 0 305 -183 177 -183 177 -245 1 -245 0 -42 41 -43 41 0 132 0
132 43 42 43 42 165 0 165 0 37 -38 c37 -37 37 -39 37 -120 l0 -82 225 0 225
0 0 169 c0 101 -4 171 -10 173 -5 2 -87 81 -183 176 l-173 172 -326 0 -325 0
-187 -181z m951 -67 l151 -147 2 -60 c1 -33 1 -79 1 -102 l-1 -43 -125 0 -125
0 0 56 c0 57 0 57 -65 120 l-66 64 -212 0 -213 0 -62 -62 -61 -63 -1 -179 -2
-179 63 -63 63 -64 249 0 250 0 153 -152 154 -152 0 -267 0 -266 -151 -147
-152 -146 -289 0 -290 0 -154 147 -154 147 0 103 0 103 125 0 125 0 0 -60 0
-59 67 -66 66 -65 214 0 215 0 64 62 65 62 -3 186 -3 185 -65 62 -65 63 -243
0 -244 0 -159 152 -159 151 0 262 0 262 155 151 154 152 288 0 288 -1 152
-147z"/>
</g>
</svg>
